#!OML:ASF E:/inclinewalkrobotboard/Project1/Captureday1/Session1/subject1.ASF
:FULLY-SPECIFIED
:DEGREES
151
root 0 0 0 -2.93233852895746 -1.9647020556584107 3.9473690047736265
lowerback 12.11862119227034 -0.17069025200135401 -4.448414891260578
upperback 1.7424244744163806 -0.8002568743805683 0.2239981330042572
thorax -4.834525891690594 -0.2838712455063451 2.8724822591556283
lowerneck -15.291007922596155 -2.6676287942548336 -2.8398415108283164
upperneck 14.693750206554368 -3.230459246314302 1.847965721172902
head 6.95090495474064 -1.606883371357949 0.7119003729324738
rclavicle 2.376416328532786E-16 3.3844856485313046E-15
rhumerus -31.52404063118881 -22.11582527163166 -80.85867863428425
rradius 23.917018142940442
rwrist 11.947480069944561
rhand -19.768189805461148 26.340210369350693
rfingers 7.125020000000004
rthumb 6.587520645956752 -3.7172604833477934
lclavicle 2.922807229681357E-15 3.613924352633286E-15
lhumerus -27.68554575562902 -3.9869725881223026 83.54663904582914
lradius 30.598147927980612
lwrist 8.119522196791822
lhand -28.28251747498383 25.655854894131917
lfingers 7.125020000000028
lthumb -1.6752269464161031 55.63513830834698
rfemur -26.36538458417842 -0.14234960004630137 15.902809077108369
rtibia 55.723090406240196
rfoot 3.617632792969384 -6.197767713974418
rtoes 7.33330448550631
lfemur 6.686184513824421 -5.390549985178305 -28.313833875414073
ltibia 17.747815539174347
lfoot -17.036661270969322 0.7471502013286848
ltoes 0.42410654746742793
152
root 0 0 0 -1.8035107517813556 -1.1222608931855471 3.8512987818508857
lowerback 10.832978598312817 -0.6011020236589723 -4.617723347830396
upperback 1.0676356358483148 -1.3936508465989872 0.2955334385400725
thorax -4.817880539366651 -0.5832053776808341 3.1107218273397184
lowerneck -15.942604799117444 -2.600605380722831 -2.976598230872312
upperneck 11.510718910411573 -3.0255670956011866 1.7647798070534635
head 5.912536554245085 -1.5639320115471531 0.7553508508105637
rclavicle 2.7486454496169544E-16 2.198970534342602E-15
rhumerus -31.890728460273472 -23.099533004122748 -80.61931935970063
rradius 23.32497071782843
rwrist 11.86918152469898
rhand -19.757167049009567 25.94851224059115
rfingers 7.125020000000004
rthumb 6.597940771095635 -4.113847489401309
lclavicle 4.5901375144160155E-15 2.4551118801110024E-15
lhumerus -26.865341343302063 -5.30313298930649 83.44089648325422
lradius 32.217105405046084
lwrist 8.755072658159808
lhand -28.216386204174718 24.988697340905482
lfingers 7.125020000000018
lthumb -1.6218075758813786 54.940747993323015
rfemur -30.83695283490692 1.892497913498767 19.220023142735524
rtibia 48.78432980788965
rfoot -1.9580635343005268 -9.022091213675766
rtoes 4.553915841670575
lfemur 8.742020970221919 -5.774456437044908 -28.657741816390946
ltibia 16.834569082883476
lfoot -16.832092925967473 0.36813323525882113
ltoes 0.10944826573218691
153
root 0 0 0 -1.1048472937055345 -0.47776310359761576 3.4485782013154505
lowerback 10.094179790429289 -0.8533463732483023 -4.61688395533829
upperback 0.7206726655591746 -1.7026542126216977 0.5766955531878335
thorax -4.751011812347956 -0.7325671695332454 3.4334812476684413
lowerneck -15.565014826374522 -2.6407528945432266 -3.0100037205901815
upperneck 11.952213818900145 -3.0811712047132525 1.895439681942365
head 6.049862866376954 -1.5903482624559677 0.8041681968949757
rclavicle 5.683741945391538E-16 1.2566252971906826E-15
rhumerus -32.147114288711975 -24.24581183027926 -80.29617303839133
rradius 22.703332037403456
rwrist 11.73388764615935
rhand -19.75155646464009 25.530025956515267
rfingers 7.125020000000003
rthumb 6.603369057388913 -4.541192716919625
lclavicle 5.151217007332444E-15 1.793932137983575E-15
lhumerus -26.516906202831592 -5.5512160765453595 83.16039713150084
lradius 32.65455171321548
lwrist 8.84680901660525
lhand -28.232715365055 24.66163554492254
lfingers 7.125020000000014
lthumb -1.643310354010735 54.610494395722355
rfemur -31.49090225343827 3.7827819010712243 21.168676791440035
rtibia 39.88285715984823
rfoot -6.454473572951164 -11.030316254144108
rtoes 1.5482412665616037
lfemur 10.117719401764631 -6.149970854234697 -28.56921862298561
ltibia 16.322079532522608
lfoot -16.314379177678326 3.1930730234686067E-4
ltoes -0.7933776011399161
154
root 0 0 0 -0.7981497489885602 0.33709157051734806 2.795064177600199
lowerback 9.682454899983021 -1.120821257726481 -4.444211816649052
upperback 0.4918721183959993 -1.9838332706392106 1.042492422883451
thorax -4.735891667219683 -0.8688587960662371 3.851450047088305
lowerneck -15.479718616100268 -2.782022074827147 -3.1088610557134495
upperneck 13.8778187706393 -3.302176023854962 2.0149545761550463
head 6.7710825510467 -1.6773826611733396 0.8213687762008983
rclavicle 1.3871760590453226E-15 1.1142072249160744E-15
rhumerus -32.437142006187045 -25.209248710863644 -79.96928432176921
rradius 22.041253440787656
rwrist 11.405669113145088
rhand -19.682758197652188 25.188961963925628
rfingers 7.125020000000004
rthumb 6.669820256496496 -4.877543776849208
lclavicle 6.237534064936444E-15 1.9669853265049755E-15
lhumerus -26.35019066142802 -5.344579538947041 82.81600049394642
lradius 32.52322656907453
lwrist 8.719901263277054
lhand -28.310993505774306 24.657694520650992
lfingers 7.125020000000016
lthumb -1.718481937773344 54.616644951348334
rfemur -29.53193061673485 4.8046854997237975 21.4886057725396
rtibia 33.12891813040167
rfoot -8.438053276788438 -11.52364385330672
rtoes -0.3020796635626708
lfemur 11.21978215379638 -6.364557072831653 -28.193735835196787
ltibia 16.64898648692519
lfoot -15.488928639230995 -0.5722224521529147
ltoes -2.440456717810239
155
root 0 0 0 -0.9283055540124672 0.9446205220080577 1.7761555417303705
lowerback 8.855914200607542 -1.3868826707279323 -3.947995512864833
upperback 0.010741924259168756 -2.189742291488347 1.6865309033789848
thorax -4.778055177983788 -0.9763019202093093 4.2730843482443
lowerneck -16.491654190399814 -2.908736520719932 -3.172049430509007
upperneck 17.576689605295613 -3.4784429057079826 1.6608572733529947
head 8.273992215683931 -1.7479212381816107 0.6553509380689291
rclavicle 1.9172561681548518E-15 1.0729504104354569E-15
rhumerus -33.11860045535409 -26.75984312540522 -79.39634888297834
rradius 20.4506479902603
rwrist 10.629370574414256
rhand -19.373138608681298 24.65887379825277
rfingers 7.125020000000007
rthumb 6.968090641692263 -5.378513383819843
lclavicle 6.823777122444165E-15 2.200913914597903E-15
lhumerus -26.495327891335446 -4.7988072922191805 82.58386393198576
lradius 31.936966045471294
lwrist 8.444877801919308
lhand -28.395683287811483 24.942281798451308
lfingers 7.125020000000021
lthumb -1.7933566962602718 54.9113259495005
rfemur -27.18528542830067 5.388996554709034 22.247015886418573
rtibia 30.015075327254884
rfoot -9.145777506988907 -10.907403472596396
rtoes -0.24076717332532538
lfemur 12.6849060602282 -6.2314169111512845 -27.12269856053378
ltibia 19.656965099506554
lfoot -13.523565486153682 -2.1608003639807714
ltoes -6.428834188899469
156
root 0 0 0 -1.523393705775771 0.8989722302242824 1.0002387585827495
lowerback 7.938784599643369 -1.471955505108805 -3.193585887086167
upperback -0.3314466187366599 -2.190434805751317 1.9755242534877069
thorax -4.655027343594839 -0.9906886968442727 4.170853039738622
lowerneck -17.288720880883556 -2.8086297623460967 -3.046512848269165
upperneck 19.164204619480252 -3.3255212198041186 1.123190017144949
head 8.873263445160052 -1.6879392168002407 0.44922747463754176
rclavicle 2.0859712884026742E-15 8.905237184087583E-16
rhumerus -33.63753778855374 -27.485096347109597 -79.16146417734535
rradius 19.349854487651633
rwrist 9.939374379755446
rhand -19.131691531775182 24.369782271425215
rfingers 7.12502000000001
rthumb 7.200943311120702 -5.634015216682375
lclavicle 6.472826305737963E-15 2.0802445946084954E-15
lhumerus -26.8256451959248 -4.447192816534951 82.66273056219953
lradius 31.544691931314198
lwrist 8.301920101600551
lhand -28.381250707126153 25.146382801624284
lfingers 7.125020000000023
lthumb -1.7725593903355925 55.12454820160315
rfemur -25.264569131434712 5.583025156478708 23.157106968653974
rtibia 29.927469841843518
rfoot -9.315468829466548 -10.108124669183878
rtoes 0.8485782005582421
lfemur 12.774440412183942 -5.8081687592698605 -26.105817054895038
ltibia 23.690393147422633
lfoot -11.629835849884632 -3.6558156724526802
ltoes -8.897907258594056
157
root 0 0 0 -2.3469545047002187 0.6054809210405794 0.27985815234971856
lowerback 8.544910365056138 -1.5052529828071521 -2.354614216920438
upperback -0.025451122013155816 -2.120042212425928 2.2557835393615253
thorax -4.6879667591591705 -0.9700057636248558 3.9939003455746627
lowerneck -17.288417101632575 -2.7044238452481366 -2.7596834676889483
upperneck 19.950721530258903 -3.118168311899569 0.47416408164530877
head 9.050630674821345 -1.6237464377561328 0.1931195350552562
rclavicle 1.3059104018896653E-15 6.949583428625057E-16
rhumerus -34.0217891695677 -27.68043071376464 -79.16060666351592
rradius 18.53333129176672
rwrist 9.624906317533735
rhand -18.876251400253356 24.207175872297533
rfingers 7.125020000000013
rthumb 7.447306679028785 -5.75338202446348
lclavicle 4.71080670556788E-15 1.822508157601737E-15
lhumerus -27.32833449763684 -4.046775965798894 82.9016764695151
lradius 31.059135900251942
lwrist 8.109021361978483
lhand -28.30602994764771 25.335225566126947
lfingers 7.125020000000028
lthumb -1.693818505394205 55.32446017806311
rfemur -22.187920142049094 5.812267570639428 24.6731065622019
rtibia 30.622227390331254
rfoot -9.692936401784525 -9.059148338543356
rtoes 2.387048438369188
lfemur 10.620675110427197 -4.853169395688362 -24.381868033926217
ltibia 31.958544863970197
lfoot -7.437766476927592 -6.526559595596154
ltoes -9.382285137506035
